PathFileType  4	(X/Y/Z) C:\Users\wagnerel85475\Documents\Thesis\opencap-core\Data\3375ffbc-daeb-4a43-b4f7-ac9899cd4c71\MarkerData\PreAugmentation
DataRate	CameraRate	NumFrames	NumMarkers	Units	OrigDataRate	OrigDataStartFrame	OrigNumFrames
60.0	60.0	16	20	m	60.0	59	469
Frame#	Time	Neck			RShoulder			RElbow			RWrist			LShoulder			LElbow			LWrist			midHip			RHip			RKnee			RAnkle			LHip			LKnee			LAnkle			LBigToe			LSmallToe			LHeel			RBigToe			RSmallToe			RHeel			
		X1	Y1	Z1	X2	Y2	Z2	X3	Y3	Z3	X4	Y4	Z4	X5	Y5	Z5	X6	Y6	Z6	X7	Y7	Z7	X8	Y8	Z8	X9	Y9	Z9	X10	Y10	Z10	X11	Y11	Z11	X12	Y12	Z12	X13	Y13	Z13	X14	Y14	Z14	X15	Y15	Z15	X16	Y16	Z16	X17	Y17	Z17	X18	Y18	Z18	X19	Y19	Z19	X20	Y20	Z20	

59	0.9666667	-1.0518200	1.3794200	-0.0767800	-1.0276300	1.3648400	0.0954900	-1.0447700	1.0416100	0.1759800	-0.9627500	0.7692400	0.1953900	-1.0511900	1.4277600	-0.2488000	-0.8887600	1.6795200	-0.3874400	-0.8781100	1.9648000	-0.3731400	-0.9337500	0.7989700	-0.0945500	-0.9739600	0.7935700	0.0297500	-1.0168300	0.3435500	0.0311200	-1.1428700	-0.1895700	0.0753300	-0.9206800	0.7994200	-0.1967300	-1.0788700	0.3116800	-0.2096400	-1.0923400	-0.2001500	-0.2477600	-0.8535900	-0.2368300	-0.2857000	-0.9526800	-0.2473000	-0.3276500	-1.1715500	-0.2603000	-0.2008500	-0.9271500	-0.2700400	0.1222700	-0.9951800	-0.2559200	0.1816800	-1.1633600	-0.2572900	0.0499900
60	0.9833333	-1.0516500	1.3799600	-0.0767300	-1.0284000	1.3636100	0.0954200	-1.0447800	1.0415700	0.1759600	-0.9627600	0.7693000	0.1953700	-1.0567300	1.4284900	-0.2502700	-0.8739200	1.6741800	-0.3940200	-0.8823700	1.9556900	-0.3744600	-0.9337600	0.7989700	-0.0945600	-0.9739700	0.7935800	0.0297300	-1.0183200	0.3427500	0.0307500	-1.1428600	-0.1908700	0.0754800	-0.9242500	0.7990800	-0.1977300	-1.0805600	0.3108900	-0.2099700	-1.0922900	-0.2007200	-0.2478200	-0.8559500	-0.2374300	-0.2870700	-0.9527500	-0.2473200	-0.3276400	-1.1657000	-0.2605500	-0.2025700	-0.9264100	-0.2698600	0.1227200	-0.9940300	-0.2556300	0.1819200	-1.1633700	-0.2573300	0.0499900
61	1.0000000	-1.0518700	1.3813400	-0.0767400	-1.0292500	1.3619800	0.0953800	-1.0447600	1.0415300	0.1759400	-0.9628600	0.7690400	0.1953700	-1.0584500	1.4283100	-0.2507100	-0.8521900	1.6669600	-0.4016800	-0.8827000	1.9482600	-0.3742900	-0.9337300	0.7990700	-0.0945700	-0.9739600	0.7936900	0.0297000	-1.0215300	0.3411300	0.0299300	-1.1429100	-0.1927800	0.0757200	-0.9263700	0.7989800	-0.1983200	-1.0802100	0.3112100	-0.2098700	-1.0923300	-0.2001600	-0.2477800	-0.8636500	-0.2393500	-0.2890300	-0.9533100	-0.2474300	-0.3275300	-1.1580900	-0.2588800	-0.2048500	-0.9217100	-0.2686200	0.1239700	-0.9887600	-0.2543000	0.1829700	-1.1634100	-0.2574000	0.0500100
62	1.0166667	-1.0519600	1.3820700	-0.0767500	-1.0280000	1.3608200	0.0957700	-1.0447300	1.0415200	0.1759300	-0.9630000	0.7677000	0.1954600	-1.0580900	1.4272600	-0.2506200	-0.8359900	1.6589700	-0.4096400	-0.8791700	1.9403500	-0.3726700	-0.9336500	0.7990100	-0.0945900	-0.9739300	0.7936900	0.0296700	-1.0235300	0.3398100	0.0293700	-1.1429900	-0.1941200	0.0758900	-0.9242300	0.7992200	-0.1977100	-1.0793700	0.3114900	-0.2098800	-1.0924000	-0.1995100	-0.2477400	-0.8691200	-0.2408200	-0.2904200	-0.9539500	-0.2476200	-0.3274000	-1.1532900	-0.2565900	-0.2063200	-0.9143800	-0.2666700	0.1255500	-0.9807400	-0.2522500	0.1845400	-1.1634700	-0.2574500	0.0500100
63	1.0333333	-1.0518400	1.3817000	-0.0767500	-1.0229800	1.3604200	0.0969200	-1.0446900	1.0414900	0.1759300	-0.9629600	0.7659800	0.1956700	-1.0578000	1.4257100	-0.2504800	-0.8314900	1.6507700	-0.4170800	-0.8714100	1.9315600	-0.3706000	-0.9336000	0.7990500	-0.0946000	-0.9739200	0.7937100	0.0296500	-1.0230100	0.3390400	0.0294300	-1.1430300	-0.1944300	0.0759300	-0.9202800	0.7995400	-0.1966100	-1.0787400	0.3111600	-0.2099800	-1.0923600	-0.2000300	-0.2478000	-0.8704000	-0.2411300	-0.2907800	-0.9528200	-0.2472800	-0.3277700	-1.1522600	-0.2556700	-0.2066300	-0.9092000	-0.2653000	0.1266100	-0.9749600	-0.2506800	0.1856800	-1.1635200	-0.2574600	0.0500100
64	1.0500000	-1.0518000	1.3800400	-0.0768200	-1.0174800	1.3605900	0.0981500	-1.0446600	1.0415300	0.1759300	-0.9627500	0.7647800	0.1958700	-1.0585200	1.4227000	-0.2503400	-0.8316800	1.6392900	-0.4237200	-0.8585100	1.9209400	-0.3697400	-0.9335900	0.7991000	-0.0946000	-0.9739100	0.7937700	0.0296600	-1.0228600	0.3375700	0.0294300	-1.1430200	-0.1942900	0.0759100	-0.9182000	0.7997700	-0.1960300	-1.0800300	0.3102100	-0.2095500	-1.0922700	-0.2011300	-0.2479100	-0.8698300	-0.2409000	-0.2906600	-0.9478800	-0.2458900	-0.3292200	-1.1526500	-0.2561000	-0.2064900	-0.9079200	-0.2649800	0.1268500	-0.9749600	-0.2507700	0.1856600	-1.1635500	-0.2574400	0.0500000
65	1.0666667	-1.0518000	1.3776600	-0.0769000	-1.0163000	1.3606700	0.0984300	-1.0446200	1.0415100	0.1759400	-0.9641100	0.7643900	0.1956400	-1.0598500	1.4166300	-0.2502900	-0.8298000	1.6230900	-0.4302500	-0.8410600	1.9077500	-0.3703800	-0.9335900	0.7990600	-0.0946000	-0.9738800	0.7937000	0.0296800	-1.0229800	0.3356400	0.0294000	-1.1430000	-0.1941700	0.0758900	-0.9194100	0.7996100	-0.1963900	-1.0854000	0.3083200	-0.2078500	-1.0922400	-0.2016400	-0.2479600	-0.8693600	-0.2407900	-0.2905500	-0.9407300	-0.2439800	-0.3312800	-1.1526600	-0.2572200	-0.2064700	-0.9084600	-0.2651100	0.1267300	-0.9811200	-0.2523300	0.1844400	-1.1635500	-0.2574400	0.0500000
66	1.0833333	-1.0502800	1.3761800	-0.0765800	-1.0173700	1.3606800	0.0982100	-1.0445900	1.0415300	0.1759400	-0.9692600	0.7641300	0.1946000	-1.0593000	1.4083000	-0.2507300	-0.8291900	1.6062100	-0.4375000	-0.8217400	1.8909200	-0.3711300	-0.9336500	0.7990000	-0.0946000	-0.9739200	0.7936600	0.0297000	-1.0206900	0.3351300	0.0299100	-1.1429500	-0.1941600	0.0758800	-0.9244100	0.7990800	-0.1978100	-1.0933000	0.3060700	-0.2054100	-1.0922800	-0.2011600	-0.2479200	-0.8693100	-0.2408000	-0.2905200	-0.9358300	-0.2426700	-0.3327000	-1.1523400	-0.2581900	-0.2065600	-0.9089100	-0.2652100	0.1266300	-0.9896300	-0.2544100	0.1827600	-1.1635300	-0.2574300	0.0499900
67	1.1000000	-1.0452600	1.3758600	-0.0753700	-1.0157400	1.3606700	0.0986000	-1.0445600	1.0415400	0.1759400	-0.9767000	0.7636700	0.1931000	-1.0530900	1.4008200	-0.2518200	-0.8351300	1.5918700	-0.4453100	-0.8003100	1.8682100	-0.3717900	-0.9337400	0.7990100	-0.0945900	-0.9740100	0.7936400	0.0297100	-1.0185400	0.3358000	0.0303500	-1.1429200	-0.1941700	0.0758700	-0.9312500	0.7984200	-0.1997400	-1.0985500	0.3048100	-0.2038200	-1.0923700	-0.2000200	-0.2478100	-0.8694800	-0.2407900	-0.2905200	-0.9347200	-0.2423600	-0.3330100	-1.1521100	-0.2586100	-0.2066300	-0.9089500	-0.2652200	0.1266200	-0.9935900	-0.2554900	0.1819600	-1.1635100	-0.2574300	0.0499800
68	1.1166667	-1.0382400	1.3756400	-0.0736000	-1.0124200	1.3606000	0.0993600	-1.0445300	1.0415200	0.1759600	-0.9818900	0.7632600	0.1920500	-1.0411200	1.3969100	-0.2525300	-0.8460100	1.5776300	-0.4525400	-0.7731500	1.8428100	-0.3738700	-0.9337800	0.7990200	-0.0946100	-0.9740800	0.7936500	0.0297100	-1.0200800	0.3353600	0.0300000	-1.1429100	-0.1941900	0.0758600	-0.9358800	0.7980300	-0.2010500	-1.0980500	0.3052400	-0.2040300	-1.0924400	-0.1994000	-0.2477500	-0.8695100	-0.2408000	-0.2905600	-0.9352000	-0.2425000	-0.3328800	-1.1521100	-0.2585400	-0.2066300	-0.9088600	-0.2652000	0.1266300	-0.9895600	-0.2544600	0.1827400	-1.1635300	-0.2574400	0.0499800
69	1.1333333	-1.0336700	1.3745300	-0.0723200	-1.0107900	1.3605800	0.0997300	-1.0446400	1.0415100	0.1759600	-0.9831900	0.7631700	0.1917800	-1.0294000	1.3947400	-0.2519800	-0.8538500	1.5613100	-0.4586000	-0.7453000	1.8155900	-0.3781900	-0.9337300	0.7990000	-0.0946300	-0.9740700	0.7936700	0.0297000	-1.0235000	0.3334100	0.0293400	-1.1429100	-0.1941900	0.0758600	-0.9369300	0.7979100	-0.2013800	-1.0939500	0.3068200	-0.2053300	-1.0924100	-0.2000300	-0.2478100	-0.8690400	-0.2406800	-0.2906700	-0.9352200	-0.2424900	-0.3328900	-1.1521800	-0.2585900	-0.2066000	-0.9087600	-0.2651800	0.1266500	-0.9814800	-0.2523100	0.1843400	-1.1635600	-0.2574600	0.0499700
70	1.1500000	-1.0332900	1.3727500	-0.0718400	-1.0108600	1.3604700	0.0997300	-1.0451600	1.0414800	0.1758700	-0.9827000	0.7632400	0.1918600	-1.0234700	1.3915800	-0.2509200	-0.8494100	1.5417900	-0.4650800	-0.7269900	1.7916800	-0.3832400	-0.9336800	0.7990500	-0.0946500	-0.9740100	0.7936900	0.0296900	-1.0266400	0.3314300	0.0287600	-1.1428900	-0.1942100	0.0758600	-0.9364100	0.7979800	-0.2012500	-1.0916500	0.3082300	-0.2060400	-1.0923500	-0.2010900	-0.2479100	-0.8682200	-0.2404900	-0.2907200	-0.9347400	-0.2423800	-0.3330300	-1.1522300	-0.2587600	-0.2065900	-0.9086700	-0.2651900	0.1266600	-0.9757900	-0.2509700	0.1854500	-1.1635600	-0.2574900	0.0499600
71	1.1666667	-1.0346200	1.3715200	-0.0717900	-1.0112100	1.3605500	0.0996700	-1.0456900	1.0414700	0.1758000	-0.9823100	0.7632200	0.1919400	-1.0225900	1.3885100	-0.2503400	-0.8328900	1.5178700	-0.4730100	-0.7214900	1.7637200	-0.3879300	-0.9336900	0.7990900	-0.0946600	-0.9740100	0.7937300	0.0296800	-1.0300600	0.3302000	0.0279400	-1.1428500	-0.1942600	0.0758600	-0.9360600	0.7980400	-0.2011400	-1.0925200	0.3089900	-0.2057700	-1.0923100	-0.2015700	-0.2479500	-0.8692700	-0.2407700	-0.2903600	-0.9358700	-0.2426400	-0.3327100	-1.1521700	-0.2583300	-0.2066200	-0.9086500	-0.2651900	0.1266800	-0.9745300	-0.2506400	0.1857000	-1.1635500	-0.2575000	0.0499500
72	1.1833333	-1.0338900	1.3712600	-0.0722700	-1.0113200	1.3605200	0.0996500	-1.0440100	1.0415400	0.1761900	-0.9823100	0.7631400	0.1919700	-1.0232000	1.3867700	-0.2501300	-0.8166300	1.4969600	-0.4793200	-0.7226800	1.7326600	-0.3919500	-0.9337800	0.7990800	-0.0946500	-0.9740800	0.7937200	0.0296700	-1.0331000	0.3299100	0.0270100	-1.1428500	-0.1942800	0.0758600	-0.9361200	0.7980700	-0.2011300	-1.0912000	0.3097000	-0.2062400	-1.0923000	-0.2015300	-0.2479400	-0.8756200	-0.2424800	-0.2894200	-0.9408100	-0.2439600	-0.3312800	-1.1517800	-0.2568900	-0.2067900	-0.9087500	-0.2652300	0.1266900	-0.9752200	-0.2508300	0.1855700	-1.1635400	-0.2575300	0.0499400
73	1.2000000	-1.0287400	1.3712600	-0.0737700	-1.0112500	1.3605200	0.0996500	-1.0381800	1.0417500	0.1774200	-0.9823600	0.7634600	0.1919600	-1.0233400	1.3862700	-0.2500500	-0.8116000	1.4795500	-0.4818100	-0.7255600	1.7079500	-0.3955000	-0.9339400	0.7993500	-0.0946300	-0.9741600	0.7938600	0.0296900	-1.0343700	0.3310200	0.0264800	-1.1429000	-0.1942700	0.0758500	-0.9363600	0.7982100	-0.2011500	-1.0854700	0.3097800	-0.2081800	-1.0923000	-0.2014400	-0.2479300	-0.8859300	-0.2454700	-0.2884300	-0.9479600	-0.2460100	-0.3292000	-1.1513200	-0.2547300	-0.2070300	-0.9088300	-0.2652400	0.1267100	-0.9757300	-0.2508800	0.1855000	-1.1635500	-0.2575600	0.0499500
74	1.2166667	-1.0213000	1.3712500	-0.0759100	-1.0111800	1.3604700	0.0996500	-1.0318200	1.0420400	0.1787400	-0.9821900	0.7646700	0.1919100	-1.0228800	1.3860900	-0.2509800	-0.8154300	1.4509200	-0.4834400	-0.7295000	1.6729000	-0.3998400	-0.9340300	0.7993000	-0.0946000	-0.9741200	0.7937600	0.0297300	-1.0343600	0.3330500	0.0264100	-1.1429500	-0.1942700	0.0758500	-0.9365000	0.7980400	-0.2011700	-1.0802100	0.3083400	-0.2099900	-1.0923000	-0.2014300	-0.2479300	-0.8927600	-0.2473500	-0.2876200	-0.9529100	-0.2474400	-0.3277600	-1.1508500	-0.2535900	-0.2072100	-0.9085500	-0.2651500	0.1268000	-0.9754000	-0.2507900	0.1855900	-1.1635600	-0.2575800	0.0499600
